RobotoDelta-XTRAmax.ufo
<glyph name="ampersand" format="1">
  <advance width="1614"/>
  <unicode hex="0026"/>
  <outline>
    <contour>
      <point x="102" y="392" type="qcurve" smooth="yes"/>
      <point x="102" y="536"/>
      <point x="328" y="717"/>
      <point x="507" y="809" type="qcurve" smooth="yes"/>
      <point x="782" y="955" type="line" smooth="yes"/>
      <point x="884" y="1009"/>
      <point x="984" y="1102"/>
      <point x="984" y="1169" type="qcurve" smooth="yes"/>
      <point x="984" y="1221"/>
      <point x="851" y="1325"/>
      <point x="716" y="1325" type="qcurve" smooth="yes"/>
      <point x="575" y="1325"/>
      <point x="444" y="1199"/>
      <point x="444" y="1129" type="qcurve" smooth="yes"/>
      <point x="444" y="1070"/>
      <point x="579" y="916"/>
      <point x="680" y="829" type="qcurve" smooth="yes"/>
      <point x="1607" y="0" type="line"/>
      <point x="1357" y="0" type="line"/>
      <point x="603" y="673" type="line" smooth="yes"/>
      <point x="452" y="803"/>
      <point x="260" y="1003"/>
      <point x="260" y="1123" type="qcurve" smooth="yes"/>
      <point x="260" y="1299"/>
      <point x="520" y="1476"/>
      <point x="717" y="1476" type="qcurve" smooth="yes"/>
      <point x="908" y="1476"/>
      <point x="1148" y="1299"/>
      <point x="1148" y="1169" type="qcurve" smooth="yes"/>
      <point x="1148" y="1056"/>
      <point x="1005" y="915"/>
      <point x="907" y="860" type="qcurve" smooth="yes"/>
      <point x="520" y="645" type="line" smooth="yes"/>
      <point x="356" y="554"/>
      <point x="285" y="413"/>
      <point x="285" y="392" type="qcurve" smooth="yes"/>
      <point x="285" y="294"/>
      <point x="483" y="132"/>
      <point x="699" y="132" type="qcurve" smooth="yes"/>
      <point x="947" y="132"/>
      <point x="1327" y="439"/>
      <point x="1327" y="672" type="qcurve"/>
      <point x="1484" y="672" type="line"/>
      <point x="1484" y="512"/>
      <point x="1371" y="271"/>
      <point x="1252" y="182" type="qcurve" smooth="yes"/>
      <point x="1237" y="171"/>
      <point x="1224" y="147"/>
      <point x="1214" y="139" type="qcurve" smooth="yes"/>
      <point x="1116" y="60"/>
      <point x="824" y="-20"/>
      <point x="699" y="-20" type="qcurve" smooth="yes"/>
      <point x="433" y="-20"/>
      <point x="102" y="206"/>
    </contour>
  </outline>
</glyph>
<glyph name="parenleft" format="1">
  <advance width="818"/>
  <unicode hex="0028"/>
  <outline>
    <contour>
      <point x="782" y="-415" type="line"/>
      <point x="651" y="-360"/>
      <point x="124" y="88"/>
      <point x="124" y="532" type="qcurve" smooth="yes"/>
      <point x="124" y="542" type="line" smooth="yes"/>
      <point x="124" y="984"/>
      <point x="651" y="1415"/>
      <point x="782" y="1470" type="qcurve"/>
      <point x="782" y="1316" type="line"/>
      <point x="631" y="1245"/>
      <point x="320" y="883"/>
      <point x="320" y="544" type="qcurve" smooth="yes"/>
      <point x="320" y="520" type="line" smooth="yes"/>
      <point x="320" y="173"/>
      <point x="631" y="-185"/>
      <point x="782" y="-263" type="qcurve"/>
    </contour>
  </outline>
</glyph>
<glyph name="comma" format="1">
  <advance width="634"/>
  <unicode hex="002C"/>
  <outline>
    <contour>
      <point x="99" y="-219" type="line"/>
      <point x="177" y="-145"/>
      <point x="258" y="2"/>
      <point x="258" y="68" type="qcurve" smooth="yes"/>
      <point x="258" y="220" type="line"/>
      <point x="433" y="220" type="line"/>
      <point x="433" y="71" type="line" smooth="yes"/>
      <point x="433" y="-33"/>
      <point x="304" y="-227"/>
      <point x="218" y="-275" type="qcurve"/>
    </contour>
  </outline>
</glyph>
<glyph name="five" format="1">
  <advance width="1410"/>
  <unicode hex="0035"/>
  <outline>
    <contour>
      <point x="93" y="373" type="line"/>
      <point x="274" y="373" type="line"/>
      <point x="274" y="371" type="line" smooth="yes"/>
      <point x="274" y="255"/>
      <point x="492" y="112"/>
      <point x="694" y="112" type="qcurve" smooth="yes"/>
      <point x="893" y="112"/>
      <point x="1121" y="297"/>
      <point x="1121" y="462" type="qcurve" smooth="yes"/>
      <point x="1121" y="627"/>
      <point x="901" y="788"/>
      <point x="720" y="788" type="qcurve" smooth="yes"/>
      <point x="560" y="788"/>
      <point x="364" y="726"/>
      <point x="294" y="679" type="qcurve"/>
      <point x="158" y="728" type="line"/>
      <point x="256" y="1456" type="line"/>
      <point x="1207" y="1456" type="line"/>
      <point x="1207" y="1285" type="line"/>
      <point x="401" y="1285" type="line"/>
      <point x="338" y="847" type="line"/>
      <point x="445" y="901"/>
      <point x="634" y="952"/>
      <point x="746" y="952" type="qcurve" smooth="yes"/>
      <point x="993" y="952"/>
      <point x="1302" y="681"/>
      <point x="1302" y="464" type="qcurve" smooth="yes"/>
      <point x="1302" y="246"/>
      <point x="976" y="-40"/>
      <point x="716" y="-40" type="qcurve" smooth="yes"/>
      <point x="455" y="-40"/>
      <point x="93" y="164"/>
      <point x="93" y="370" type="qcurve" smooth="yes"/>
    </contour>
  </outline>
</glyph>
<glyph name="A" format="1">
  <advance width="1662"/>
  <unicode hex="0041"/>
  <outline>
    <contour>
      <point x="0" y="0" type="line"/>
      <point x="744" y="1466" type="line"/>
      <point x="916" y="1466" type="line"/>
      <point x="1662" y="0" type="line"/>
      <point x="1451" y="0" type="line"/>
      <point x="918" y="1078" type="line" smooth="yes"/>
      <point x="901" y="1113"/>
      <point x="854" y="1210"/>
      <point x="838" y="1254" type="qcurve"/>
      <point x="827" y="1254" type="line"/>
      <point x="807" y="1211"/>
      <point x="760" y="1112"/>
      <point x="743" y="1078" type="qcurve" smooth="yes"/>
      <point x="205" y="0" type="line"/>
    </contour>
    <contour>
      <point x="321" y="381" type="line"/>
      <point x="402" y="539" type="line"/>
      <point x="1283" y="539" type="line"/>
      <point x="1364" y="381" type="line"/>
    </contour>
    <contour>
      <point x="831" y="1432" type="move" name="top"/>
    </contour>
  </outline>
</glyph>
<glyph name="B" format="1">
  <advance width="1533"/>
  <unicode hex="0042"/>
  <outline>
    <contour>
      <point x="170" y="0" type="line"/>
      <point x="170" y="1456" type="line"/>
      <point x="874" y="1456" type="line" smooth="yes"/>
      <point x="1140" y="1456"/>
      <point x="1381" y="1253"/>
      <point x="1381" y="1084" type="qcurve" smooth="yes"/>
      <point x="1381" y="935"/>
      <point x="1213" y="785"/>
      <point x="1093" y="765" type="qcurve"/>
      <point x="1093" y="768" type="line"/>
      <point x="1243" y="748"/>
      <point x="1433" y="577"/>
      <point x="1433" y="428" type="qcurve" smooth="yes"/>
      <point x="1433" y="211"/>
      <point x="1119" y="0"/>
      <point x="874" y="0" type="qcurve" smooth="yes"/>
    </contour>
    <contour>
      <point x="364" y="836" type="line"/>
      <point x="852" y="836" type="line" smooth="yes"/>
      <point x="1010" y="836"/>
      <point x="1191" y="951"/>
      <point x="1191" y="1070" type="qcurve" smooth="yes"/>
      <point x="1191" y="1189"/>
      <point x="1024" y="1298"/>
      <point x="846" y="1298" type="qcurve" smooth="yes"/>
      <point x="364" y="1298" type="line"/>
    </contour>
    <contour>
      <point x="364" y="157" type="line"/>
      <point x="889" y="157" type="line" smooth="yes"/>
      <point x="1072" y="157"/>
      <point x="1241" y="306"/>
      <point x="1241" y="418" type="qcurve" smooth="yes"/>
      <point x="1241" y="539"/>
      <point x="1073" y="681"/>
      <point x="880" y="681" type="qcurve" smooth="yes"/>
      <point x="364" y="681" type="line"/>
    </contour>
  </outline>
</glyph>
<glyph name="C" format="1">
  <advance width="1656"/>
  <unicode hex="0043"/>
  <outline>
    <contour>
      <point x="115" y="694" type="qcurve" smooth="yes"/>
      <point x="115" y="760" type="line" smooth="yes"/>
      <point x="115" y="1120"/>
      <point x="565" y="1496"/>
      <point x="893" y="1496" type="qcurve" smooth="yes"/>
      <point x="1230" y="1496"/>
      <point x="1575" y="1220"/>
      <point x="1603" y="1011" type="qcurve" smooth="yes"/>
      <point x="1606" y="989" type="line"/>
      <point x="1410" y="989" type="line"/>
      <point x="1407" y="1007" type="line" smooth="yes"/>
      <point x="1385" y="1140"/>
      <point x="1154" y="1328"/>
      <point x="887" y="1328" type="qcurve" smooth="yes"/>
      <point x="607" y="1328"/>
      <point x="317" y="1024"/>
      <point x="317" y="762" type="qcurve" smooth="yes"/>
      <point x="317" y="697" type="line" smooth="yes"/>
      <point x="317" y="440"/>
      <point x="636" y="127"/>
      <point x="897" y="127" type="qcurve" smooth="yes"/>
      <point x="1129" y="127"/>
      <point x="1376" y="294"/>
      <point x="1407" y="448" type="qcurve" smooth="yes"/>
      <point x="1410" y="463" type="line"/>
      <point x="1606" y="463" type="line"/>
      <point x="1603" y="442" type="line" smooth="yes"/>
      <point x="1570" y="246"/>
      <point x="1211" y="-40"/>
      <point x="890" y="-40" type="qcurve" smooth="yes"/>
      <point x="565" y="-40"/>
      <point x="115" y="339"/>
    </contour>
    <contour>
      <point x="872.0" y="0.0" type="move" name="bottom"/>
    </contour>
  </outline>
</glyph>
<glyph name="E" format="1">
  <advance width="1413"/>
  <unicode hex="0045"/>
  <outline>
    <contour>
      <point x="170" y="0" type="line"/>
      <point x="170" y="1456" type="line"/>
      <point x="1331" y="1456" type="line"/>
      <point x="1331" y="1298" type="line"/>
      <point x="364" y="1298" type="line"/>
      <point x="364" y="830" type="line"/>
      <point x="1208" y="830" type="line"/>
      <point x="1208" y="673" type="line"/>
      <point x="364" y="673" type="line"/>
      <point x="364" y="157" type="line"/>
      <point x="1345" y="157" type="line"/>
      <point x="1345" y="0" type="line"/>
    </contour>
    <contour>
      <point x="733" y="1432" type="move" name="top"/>
    </contour>
  </outline>
</glyph>
<glyph name="G" format="1">
  <advance width="1691"/>
  <unicode hex="0047"/>
  <outline>
    <contour>
      <point x="115" y="705" type="qcurve" smooth="yes"/>
      <point x="115" y="755" type="line" smooth="yes"/>
      <point x="115" y="1117"/>
      <point x="566" y="1496"/>
      <point x="908" y="1496" type="qcurve" smooth="yes"/>
      <point x="1213" y="1496"/>
      <point x="1565" y="1236"/>
      <point x="1606" y="1054" type="qcurve" smooth="yes"/>
      <point x="1611" y="1030" type="line"/>
      <point x="1412" y="1030" type="line"/>
      <point x="1408" y="1046" type="line" smooth="yes"/>
      <point x="1380" y="1158"/>
      <point x="1130" y="1338"/>
      <point x="908" y="1338" type="qcurve" smooth="yes"/>
      <point x="619" y="1338"/>
      <point x="312" y="1022"/>
      <point x="312" y="757" type="qcurve" smooth="yes"/>
      <point x="312" y="705" type="line" smooth="yes"/>
      <point x="312" y="429"/>
      <point x="639" y="117"/>
      <point x="951" y="117" type="qcurve" smooth="yes"/>
      <point x="1139" y="117"/>
      <point x="1373" y="199"/>
      <point x="1424" y="229" type="qcurve"/>
      <point x="1424" y="569" type="line"/>
      <point x="938" y="569" type="line"/>
      <point x="938" y="725" type="line"/>
      <point x="1608" y="725" type="line"/>
      <point x="1608" y="164" type="line"/>
      <point x="1539" y="103"/>
      <point x="1161" y="-40"/>
      <point x="910" y="-40" type="qcurve" smooth="yes"/>
      <point x="578" y="-40"/>
      <point x="115" y="340"/>
    </contour>
  </outline>
</glyph>
<glyph name="K" format="1">
  <advance width="1589"/>
  <unicode hex="004B"/>
  <outline>
    <contour>
      <point x="1342" y="0" type="line"/>
      <point x="591" y="747" type="line"/>
      <point x="735" y="862" type="line"/>
      <point x="1609" y="0" type="line"/>
    </contour>
    <contour>
      <point x="170" y="0" type="line"/>
      <point x="170" y="1456" type="line"/>
      <point x="364" y="1456" type="line"/>
      <point x="364" y="688" type="line"/>
      <point x="500" y="799" type="line"/>
      <point x="1287" y="1456" type="line"/>
      <point x="1551" y="1456" type="line"/>
      <point x="364" y="497" type="line"/>
      <point x="364" y="0" type="line"/>
    </contour>
  </outline>
</glyph>
<glyph name="L" format="1">
  <advance width="1312"/>
  <unicode hex="004C"/>
  <outline>
    <contour>
      <point x="170" y="0" type="line"/>
      <point x="170" y="1456" type="line"/>
      <point x="364" y="1456" type="line"/>
      <point x="364" y="157" type="line"/>
      <point x="1288" y="157" type="line"/>
      <point x="1288" y="0" type="line"/>
    </contour>
  </outline>
</glyph>
<glyph name="O" format="1">
  <advance width="1814"/>
  <unicode hex="004F"/>
  <outline>
    <contour>
      <point x="115" y="699" type="qcurve" smooth="yes"/>
      <point x="115" y="753" type="line" smooth="yes"/>
      <point x="115" y="1107"/>
      <point x="575" y="1496"/>
      <point x="906" y="1496" type="qcurve" smooth="yes"/>
      <point x="1250" y="1496"/>
      <point x="1699" y="1110"/>
      <point x="1699" y="753" type="qcurve" smooth="yes"/>
      <point x="1699" y="699" type="line" smooth="yes"/>
      <point x="1699" y="348"/>
      <point x="1250" y="-40"/>
      <point x="909" y="-40" type="qcurve" smooth="yes"/>
      <point x="572" y="-40"/>
      <point x="115" y="344"/>
    </contour>
    <contour>
      <point x="312" y="699" type="line" smooth="yes"/>
      <point x="312" y="432"/>
      <point x="639" y="123"/>
      <point x="909" y="123" type="qcurve" smooth="yes"/>
      <point x="1194" y="123"/>
      <point x="1502" y="430"/>
      <point x="1502" y="699" type="qcurve" smooth="yes"/>
      <point x="1502" y="755" type="line" smooth="yes"/>
      <point x="1502" y="1024"/>
      <point x="1189" y="1332"/>
      <point x="906" y="1332" type="qcurve" smooth="yes"/>
      <point x="633" y="1332"/>
      <point x="312" y="1026"/>
      <point x="312" y="755" type="qcurve" smooth="yes"/>
    </contour>
    <contour>
      <point x="907" y="1432" type="move" name="top"/>
    </contour>
  </outline>
</glyph>
<glyph name="S" format="1">
  <advance width="1508"/>
  <unicode hex="0053"/>
  <outline>
    <contour>
      <point x="88" y="393" type="qcurve" smooth="yes"/>
      <point x="88" y="405" type="line"/>
      <point x="280" y="405" type="line"/>
      <point x="280" y="398" type="line" smooth="yes"/>
      <point x="280" y="272"/>
      <point x="532" y="120"/>
      <point x="760" y="120" type="qcurve" smooth="yes"/>
      <point x="998" y="120"/>
      <point x="1239" y="250"/>
      <point x="1239" y="368" type="qcurve" smooth="yes"/>
      <point x="1239" y="486"/>
      <point x="1008" y="604"/>
      <point x="721" y="662" type="qcurve" smooth="yes"/>
      <point x="421" y="723"/>
      <point x="129" y="913"/>
      <point x="129" y="1090" type="qcurve" smooth="yes"/>
      <point x="129" y="1267"/>
      <point x="482" y="1496"/>
      <point x="758" y="1496" type="qcurve" smooth="yes"/>
      <point x="1068" y="1496"/>
      <point x="1394" y="1243"/>
      <point x="1394" y="1071" type="qcurve" smooth="yes"/>
      <point x="1394" y="1056" type="line"/>
      <point x="1202" y="1056" type="line"/>
      <point x="1202" y="1070" type="line" smooth="yes"/>
      <point x="1202" y="1180"/>
      <point x="979" y="1331"/>
      <point x="746" y="1331" type="qcurve" smooth="yes"/>
      <point x="517" y="1331"/>
      <point x="323" y="1202"/>
      <point x="322" y="1102" type="qcurve" smooth="yes"/>
      <point x="321" y="1002"/>
      <point x="537" y="885"/>
      <point x="805" y="831" type="qcurve" smooth="yes"/>
      <point x="1103" y="771"/>
      <point x="1433" y="587"/>
      <point x="1433" y="380" type="qcurve" smooth="yes"/>
      <point x="1433" y="173"/>
      <point x="1067" y="-40"/>
      <point x="776" y="-40" type="qcurve" smooth="yes"/>
      <point x="475" y="-40"/>
      <point x="88" y="177"/>
    </contour>
  </outline>
</glyph>
<glyph name="X" format="1">
  <advance width="1570"/>
  <unicode hex="0058"/>
  <outline>
    <contour>
      <point x="40" y="1456" type="line"/>
      <point x="279" y="1456" type="line"/>
      <point x="829" y="813" type="line"/>
      <point x="835" y="813" type="line"/>
      <point x="1546" y="0" type="line"/>
      <point x="1305" y="0" type="line"/>
      <point x="746" y="644" type="line"/>
      <point x="742" y="644" type="line"/>
    </contour>
    <contour>
      <point x="24" y="0" type="line"/>
      <point x="725" y="803" type="line"/>
      <point x="730" y="803" type="line"/>
      <point x="1280" y="1456" type="line"/>
      <point x="1518" y="1456" type="line"/>
      <point x="815" y="644" type="line"/>
      <point x="812" y="644" type="line"/>
      <point x="262" y="0" type="line"/>
    </contour>
  </outline>
</glyph>
<glyph name="grave" format="1">
  <advance width="1153"/>
  <unicode hex="0060"/>
  <outline>
    <contour>
      <point x="530" y="1457" type="line"/>
      <point x="833" y="1175" type="line"/>
      <point x="833" y="1153" type="line"/>
      <point x="662" y="1153" type="line"/>
      <point x="267" y="1457" type="line"/>
    </contour>
    <contour>
      <point x="668" y="1052" type="move" name="_top"/>
    </contour>
  </outline>
</glyph>
<glyph name="a" format="1">
  <advance width="1445"/>
  <unicode hex="0061"/>
  <outline>
    <contour>
      <point x="91" y="301" type="qcurve" smooth="yes"/>
      <point x="91" y="473"/>
      <point x="405" y="648"/>
      <point x="642" y="648" type="qcurve" smooth="yes"/>
      <point x="1110" y="648" type="line"/>
      <point x="1110" y="722" type="line" smooth="yes"/>
      <point x="1110" y="808"/>
      <point x="944" y="933"/>
      <point x="741" y="933" type="qcurve" smooth="yes"/>
      <point x="540" y="933"/>
      <point x="362" y="831"/>
      <point x="362" y="771" type="qcurve" smooth="yes"/>
      <point x="362" y="762" type="line"/>
      <point x="181" y="762" type="line"/>
      <point x="181" y="769" type="line" smooth="yes"/>
      <point x="181" y="903"/>
      <point x="499" y="1082"/>
      <point x="755" y="1082" type="qcurve" smooth="yes"/>
      <point x="994" y="1082"/>
      <point x="1287" y="909"/>
      <point x="1287" y="720" type="qcurve" smooth="yes"/>
      <point x="1287" y="236" type="line" smooth="yes"/>
      <point x="1287" y="199"/>
      <point x="1317" y="71"/>
      <point x="1343" y="30" type="qcurve"/>
      <point x="1343" y="0" type="line"/>
      <point x="1162" y="0" type="line"/>
      <point x="1149" y="14"/>
      <point x="1120" y="88"/>
      <point x="1110" y="178" type="qcurve"/>
      <point x="1000" y="80"/>
      <point x="743" y="-20"/>
      <point x="560" y="-20" type="qcurve" smooth="yes"/>
      <point x="354" y="-20"/>
      <point x="91" y="144"/>
    </contour>
    <contour>
      <point x="274" y="326" type="qcurve" smooth="yes"/>
      <point x="274" y="225"/>
      <point x="450" y="132"/>
      <point x="634" y="132" type="qcurve" smooth="yes"/>
      <point x="846" y="132"/>
      <point x="1103" y="302"/>
      <point x="1110" y="386" type="qcurve"/>
      <point x="1110" y="516" type="line"/>
      <point x="721" y="516" type="line" smooth="yes"/>
      <point x="510" y="516"/>
      <point x="274" y="421"/>
    </contour>
    <contour>
      <point x="736.0" y="1052.0" type="move" name="top"/>
    </contour>
  </outline>
</glyph>
<glyph name="c" format="1">
  <advance width="1445"/>
  <unicode hex="0063"/>
  <outline>
    <contour>
      <point x="85" y="522" type="qcurve" smooth="yes"/>
      <point x="85" y="536" type="line" smooth="yes"/>
      <point x="85" y="788"/>
      <point x="460" y="1092"/>
      <point x="770" y="1092" type="qcurve" smooth="yes"/>
      <point x="1081" y="1092"/>
      <point x="1386" y="864"/>
      <point x="1406" y="713" type="qcurve" smooth="yes"/>
      <point x="1409" y="690" type="line"/>
      <point x="1231" y="690" type="line"/>
      <point x="1226" y="707" type="line" smooth="yes"/>
      <point x="1197" y="804"/>
      <point x="981" y="940"/>
      <point x="769" y="940" type="qcurve" smooth="yes"/>
      <point x="509" y="940"/>
      <point x="275" y="703"/>
      <point x="275" y="536" type="qcurve" smooth="yes"/>
      <point x="275" y="522" type="line" smooth="yes"/>
      <point x="275" y="347"/>
      <point x="501" y="112"/>
      <point x="771" y="112" type="qcurve" smooth="yes"/>
      <point x="1024" y="112"/>
      <point x="1218" y="240"/>
      <point x="1230" y="325" type="qcurve" smooth="yes"/>
      <point x="1231" y="332" type="line"/>
      <point x="1409" y="332" type="line"/>
      <point x="1408" y="325" type="line" smooth="yes"/>
      <point x="1387" y="180"/>
      <point x="1066" y="-40"/>
      <point x="770" y="-40" type="qcurve" smooth="yes"/>
      <point x="457" y="-40"/>
      <point x="85" y="262"/>
    </contour>
    <contour>
      <point x="726.0" y="0.0" type="move" name="bottom"/>
    </contour>
  </outline>
</glyph>
<glyph name="d" format="1">
  <advance width="1521"/>
  <unicode hex="0064"/>
  <outline>
    <contour>
      <point x="85" y="519" type="qcurve" smooth="yes"/>
      <point x="85" y="532" type="line" smooth="yes"/>
      <point x="85" y="785"/>
      <point x="411" y="1087"/>
      <point x="671" y="1087" type="qcurve" smooth="yes"/>
      <point x="877" y="1087"/>
      <point x="1131" y="984"/>
      <point x="1188" y="927" type="qcurve"/>
      <point x="1188" y="1536" type="line"/>
      <point x="1373" y="1536" type="line"/>
      <point x="1373" y="0" type="line"/>
      <point x="1203" y="0" type="line"/>
      <point x="1187" y="171" type="line"/>
      <point x="1097" y="75"/>
      <point x="862" y="-30"/>
      <point x="691" y="-30" type="qcurve" smooth="yes"/>
      <point x="434" y="-30"/>
      <point x="85" y="265"/>
    </contour>
    <contour>
      <point x="274" y="519" type="line" smooth="yes"/>
      <point x="274" y="329"/>
      <point x="506" y="127"/>
      <point x="728" y="127" type="qcurve" smooth="yes"/>
      <point x="900" y="127"/>
      <point x="1132" y="256"/>
      <point x="1188" y="349" type="qcurve"/>
      <point x="1188" y="735" type="line"/>
      <point x="1139" y="810"/>
      <point x="889" y="935"/>
      <point x="713" y="935" type="qcurve" smooth="yes"/>
      <point x="501" y="935"/>
      <point x="274" y="701"/>
      <point x="274" y="533" type="qcurve" smooth="yes"/>
    </contour>
  </outline>
</glyph>
<glyph name="g" format="1">
  <advance width="1510"/>
  <unicode hex="0067"/>
  <outline>
    <contour>
      <point x="130" y="-284" type="qcurve"/>
      <point x="271" y="-169" type="line"/>
      <point x="303" y="-192"/>
      <point x="546" y="-275"/>
      <point x="719" y="-275" type="qcurve" smooth="yes"/>
      <point x="944" y="-275"/>
      <point x="1194" y="-118"/>
      <point x="1194" y="14" type="qcurve" smooth="yes"/>
      <point x="1194" y="250" type="line"/>
      <point x="1141" y="150"/>
      <point x="891" y="-15"/>
      <point x="676" y="-15" type="qcurve" smooth="yes"/>
      <point x="404" y="-15"/>
      <point x="85" y="278"/>
      <point x="85" y="522" type="qcurve" smooth="yes"/>
      <point x="85" y="530" type="line" smooth="yes"/>
      <point x="85" y="778"/>
      <point x="402" y="1082"/>
      <point x="651" y="1082" type="qcurve" smooth="yes"/>
      <point x="814" y="1082"/>
      <point x="1076" y="978"/>
      <point x="1184" y="854" type="qcurve"/>
      <point x="1202" y="1052" type="line"/>
      <point x="1370" y="1052" type="line"/>
      <point x="1370" y="23" type="line" smooth="yes"/>
      <point x="1370" y="-200"/>
      <point x="1004" y="-437"/>
      <point x="740" y="-437" type="qcurve" smooth="yes"/>
      <point x="588" y="-437"/>
      <point x="217" y="-351"/>
    </contour>
    <contour>
      <point x="274" y="525" type="line" smooth="yes"/>
      <point x="274" y="346"/>
      <point x="500" y="142"/>
      <point x="730" y="142" type="qcurve" smooth="yes"/>
      <point x="913" y="142"/>
      <point x="1139" y="296"/>
      <point x="1188" y="402" type="qcurve"/>
      <point x="1188" y="653" type="line"/>
      <point x="1145" y="754"/>
      <point x="911" y="926"/>
      <point x="725" y="926" type="qcurve" smooth="yes"/>
      <point x="500" y="926"/>
      <point x="274" y="701"/>
      <point x="274" y="533" type="qcurve" smooth="yes"/>
    </contour>
  </outline>
</glyph>
<glyph name="n" format="1">
  <advance width="1450"/>
  <unicode hex="006E"/>
  <outline>
    <contour>
      <point x="148" y="0" type="line"/>
      <point x="148" y="1052" type="line"/>
      <point x="317" y="1052" type="line"/>
      <point x="329" y="866" type="line"/>
      <point x="331" y="866" type="line"/>
      <point x="425" y="965"/>
      <point x="674" y="1082"/>
      <point x="832" y="1082" type="qcurve" smooth="yes"/>
      <point x="1060" y="1082"/>
      <point x="1312" y="834"/>
      <point x="1312" y="584" type="qcurve" smooth="yes"/>
      <point x="1312" y="0" type="line"/>
      <point x="1126" y="0" type="line"/>
      <point x="1126" y="595" type="line" smooth="yes"/>
      <point x="1126" y="774"/>
      <point x="949" y="926"/>
      <point x="789" y="926" type="qcurve" smooth="yes"/>
      <point x="618" y="926"/>
      <point x="380" y="764"/>
      <point x="334" y="691" type="qcurve"/>
      <point x="334" y="0" type="line"/>
    </contour>
    <contour>
      <point x="751.0" y="1052.0" type="move" name="top"/>
    </contour>
  </outline>
</glyph>
<glyph name="q" format="1">
  <advance width="1511"/>
  <unicode hex="0071"/>
  <outline>
    <contour>
      <point x="85" y="519" type="qcurve" smooth="yes"/>
      <point x="85" y="534" type="line" smooth="yes"/>
      <point x="85" y="786"/>
      <point x="413" y="1080"/>
      <point x="704" y="1080" type="qcurve" smooth="yes"/>
      <point x="884" y="1080"/>
      <point x="1125" y="983"/>
      <point x="1191" y="912" type="qcurve"/>
      <point x="1211" y="1052" type="line"/>
      <point x="1373" y="1052" type="line"/>
      <point x="1373" y="-416" type="line"/>
      <point x="1190" y="-416" type="line"/>
      <point x="1190" y="170" type="line"/>
      <point x="1098" y="75"/>
      <point x="861" y="-30"/>
      <point x="700" y="-30" type="qcurve" smooth="yes"/>
      <point x="434" y="-30"/>
      <point x="85" y="264"/>
    </contour>
    <contour>
      <point x="274" y="518" type="line" smooth="yes"/>
      <point x="274" y="330"/>
      <point x="506" y="126"/>
      <point x="727" y="126" type="qcurve" smooth="yes"/>
      <point x="897" y="126"/>
      <point x="1134" y="257"/>
      <point x="1190" y="351" type="qcurve"/>
      <point x="1190" y="713" type="line"/>
      <point x="1137" y="804"/>
      <point x="889" y="928"/>
      <point x="710" y="928" type="qcurve" smooth="yes"/>
      <point x="500" y="928"/>
      <point x="274" y="699"/>
      <point x="274" y="534" type="qcurve" smooth="yes"/>
    </contour>
  </outline>
</glyph>
<glyph name="u" format="1">
  <advance width="1452"/>
  <unicode hex="0075"/>
  <outline>
    <contour>
      <point x="138" y="414" type="qcurve" smooth="yes"/>
      <point x="138" y="1052" type="line"/>
      <point x="324" y="1052" type="line"/>
      <point x="324" y="445" type="line" smooth="yes"/>
      <point x="324" y="268"/>
      <point x="487" y="123"/>
      <point x="659" y="123" type="qcurve" smooth="yes"/>
      <point x="844" y="123"/>
      <point x="1071" y="241"/>
      <point x="1118" y="307" type="qcurve"/>
      <point x="1118" y="1052" type="line"/>
      <point x="1304" y="1052" type="line"/>
      <point x="1304" y="0" type="line"/>
      <point x="1129" y="0" type="line"/>
      <point x="1120" y="143" type="line"/>
      <point x="1058" y="65"/>
      <point x="804" y="-34"/>
      <point x="623" y="-34" type="qcurve" smooth="yes"/>
      <point x="423" y="-34"/>
      <point x="138" y="170"/>
    </contour>
    <contour>
      <point x="724.0" y="1052.0" type="move" name="top"/>
    </contour>
  </outline>
</glyph>
<glyph name="v" format="1">
  <advance width="1315"/>
  <unicode hex="0076"/>
  <outline>
    <contour>
      <point x="0" y="1052" type="line"/>
      <point x="201" y="1052" type="line"/>
      <point x="580" y="351" type="line" smooth="yes"/>
      <point x="591" y="330"/>
      <point x="633" y="248"/>
      <point x="654" y="205" type="qcurve"/>
      <point x="662" y="205" type="line"/>
      <point x="683" y="248"/>
      <point x="726" y="330"/>
      <point x="737" y="350" type="qcurve" smooth="yes"/>
      <point x="1119" y="1052" type="line"/>
      <point x="1315" y="1052" type="line"/>
      <point x="726" y="0" type="line"/>
      <point x="593" y="0" type="line"/>
    </contour>
  </outline>
</glyph>
<glyph name="z" format="1">
  <advance width="1304"/>
  <unicode hex="007A"/>
  <outline>
    <contour>
      <point x="68" y="0" type="line"/>
      <point x="68" y="146" type="line"/>
      <point x="944" y="899" type="line"/>
      <point x="80" y="899" type="line"/>
      <point x="80" y="1052" type="line"/>
      <point x="1199" y="1052" type="line"/>
      <point x="1199" y="911" type="line"/>
      <point x="315" y="152" type="line"/>
      <point x="1242" y="152" type="line"/>
      <point x="1242" y="0" type="line"/>
    </contour>
  </outline>
</glyph>
<glyph name="asciitilde" format="1">
  <advance width="1602"/>
  <unicode hex="007E"/>
  <outline>
    <contour>
      <point x="843" y="689" type="qcurve" smooth="yes"/>
      <point x="899" y="657"/>
      <point x="1025" y="611"/>
      <point x="1147" y="611" type="qcurve" smooth="yes"/>
      <point x="1275" y="611"/>
      <point x="1377" y="722"/>
      <point x="1377" y="803" type="qcurve"/>
      <point x="1553" y="803" type="line"/>
      <point x="1553" y="637"/>
      <point x="1298" y="432"/>
      <point x="1122" y="432" type="qcurve" smooth="yes"/>
      <point x="1024" y="432"/>
      <point x="860" y="479"/>
      <point x="779" y="524" type="qcurve" smooth="yes"/>
      <point x="681" y="578"/>
      <point x="548" y="630"/>
      <point x="426" y="630" type="qcurve" smooth="yes"/>
      <point x="298" y="630"/>
      <point x="196" y="517"/>
      <point x="196" y="436" type="qcurve"/>
      <point x="20" y="436" type="line"/>
      <point x="20" y="602"/>
      <point x="275" y="807"/>
      <point x="451" y="807" type="qcurve" smooth="yes"/>
      <point x="550" y="807"/>
      <point x="713" y="764"/>
    </contour>
  </outline>
</glyph>
<glyph name="sterling" format="1">
  <advance width="1478"/>
  <unicode hex="00A3"/>
  <outline>
    <contour>
      <point x="136" y="0" type="line"/>
      <point x="136" y="157" type="line"/>
      <point x="130" y="157" type="line" smooth="yes"/>
      <point x="275" y="157"/>
      <point x="377" y="295"/>
      <point x="377" y="386" type="qcurve" smooth="yes"/>
      <point x="377" y="482"/>
      <point x="273" y="922"/>
      <point x="273" y="1089" type="qcurve" smooth="yes"/>
      <point x="273" y="1252"/>
      <point x="598" y="1476"/>
      <point x="830" y="1476" type="qcurve" smooth="yes"/>
      <point x="1068" y="1476"/>
      <point x="1351" y="1267"/>
      <point x="1351" y="1087" type="qcurve" smooth="yes"/>
      <point x="1351" y="1041" type="line"/>
      <point x="1159" y="1041" type="line"/>
      <point x="1159" y="1087" type="line" smooth="yes"/>
      <point x="1159" y="1185"/>
      <point x="984" y="1319"/>
      <point x="808" y="1319" type="qcurve" smooth="yes"/>
      <point x="633" y="1319"/>
      <point x="459" y="1168"/>
      <point x="459" y="1081" type="qcurve" smooth="yes"/>
      <point x="459" y="983"/>
      <point x="547" y="504"/>
      <point x="547" y="402" type="qcurve" smooth="yes"/>
      <point x="547" y="322"/>
      <point x="491" y="188"/>
      <point x="431" y="157" type="qcurve"/>
      <point x="1415" y="157" type="line"/>
      <point x="1415" y="0" type="line"/>
    </contour>
    <contour>
      <point x="1100" y="683" type="line"/>
      <point x="91" y="683" type="line"/>
      <point x="91" y="840" type="line"/>
      <point x="1100" y="840" type="line"/>
    </contour>
  </outline>
</glyph>
<glyph name="yen" format="1">
  <advance width="1379"/>
  <unicode hex="00A5"/>
  <outline>
    <contour>
      <point x="69" y="582" type="line"/>
      <point x="69" y="727" type="line"/>
      <point x="1311" y="727" type="line"/>
      <point x="1311" y="582" type="line"/>
    </contour>
    <contour>
      <point x="69" y="272" type="line"/>
      <point x="69" y="416" type="line"/>
      <point x="1311" y="416" type="line"/>
      <point x="1311" y="272" type="line"/>
    </contour>
    <contour>
      <point x="16" y="1456" type="line"/>
      <point x="239" y="1456" type="line"/>
      <point x="595" y="843" type="line" smooth="yes"/>
      <point x="607" y="823"/>
      <point x="649" y="753"/>
      <point x="662" y="726" type="qcurve"/>
      <point x="718" y="726" type="line"/>
      <point x="731" y="752"/>
      <point x="767" y="809"/>
      <point x="787" y="844" type="qcurve" smooth="yes"/>
      <point x="1132" y="1456" type="line"/>
      <point x="1363" y="1456" type="line"/>
      <point x="774" y="533" type="line"/>
      <point x="774" y="0" type="line"/>
      <point x="593" y="0" type="line"/>
      <point x="593" y="532" type="line"/>
    </contour>
  </outline>
</glyph>
<glyph name="hyphensoft" format="1">
  <advance width="822"/>
  <unicode hex="00AD"/>
  <outline>
    <contour>
      <point x="38" y="543" type="line"/>
      <point x="38" y="715" type="line"/>
      <point x="784" y="715" type="line"/>
      <point x="784" y="543" type="line"/>
    </contour>
  </outline>
</glyph>
<glyph name="registered" format="1">
  <advance width="2205"/>
  <unicode hex="00AE"/>
  <outline>
    <contour>
      <point x="233" y="699" type="qcurve" smooth="yes"/>
      <point x="233" y="456"/>
      <point x="722" y="64"/>
      <point x="1103" y="64" type="qcurve" smooth="yes"/>
      <point x="1501" y="64"/>
      <point x="1970" y="431"/>
      <point x="1970" y="699" type="qcurve" smooth="yes"/>
      <point x="1970" y="941"/>
      <point x="1483" y="1331"/>
      <point x="1103" y="1331" type="qcurve" smooth="yes"/>
      <point x="706" y="1331"/>
      <point x="233" y="952"/>
    </contour>
    <contour>
      <point x="94" y="699" type="qcurve" smooth="yes"/>
      <point x="94" y="1040"/>
      <point x="716" y="1478"/>
      <point x="1103" y="1478" type="qcurve" smooth="yes"/>
      <point x="1491" y="1478"/>
      <point x="2111" y="1040"/>
      <point x="2111" y="699" type="qcurve" smooth="yes"/>
      <point x="2111" y="349"/>
      <point x="1504" y="-82"/>
      <point x="1103" y="-82" type="qcurve" smooth="yes"/>
      <point x="716" y="-82"/>
      <point x="94" y="356"/>
    </contour>
    <contour>
      <point x="1152" y="633" type="line"/>
      <point x="1295" y="678" type="line"/>
      <point x="1602" y="286" type="line"/>
      <point x="1421" y="286" type="line"/>
    </contour>
    <contour>
      <point x="1189" y="595" type="line"/>
      <point x="882" y="595" type="line"/>
      <point x="882" y="287" type="line"/>
      <point x="735" y="287" type="line"/>
      <point x="735" y="1135" type="line"/>
      <point x="1114" y="1135" type="line" smooth="yes"/>
      <point x="1289" y="1135"/>
      <point x="1513" y="1004"/>
      <point x="1513" y="870" type="qcurve" smooth="yes"/>
      <point x="1513" y="781"/>
      <point x="1381" y="656"/>
      <point x="1279" y="629" type="qcurve"/>
    </contour>
    <contour>
      <point x="882" y="1008" type="line"/>
      <point x="882" y="723" type="line"/>
      <point x="1164" y="723" type="line" smooth="yes"/>
      <point x="1251" y="724"/>
      <point x="1364" y="813"/>
      <point x="1364" y="864" type="qcurve" smooth="yes"/>
      <point x="1364" y="931"/>
      <point x="1252" y="1009"/>
      <point x="1093" y="1008" type="qcurve" smooth="yes"/>
    </contour>
  </outline>
</glyph>
<glyph name="degree" format="1">
  <advance width="1100"/>
  <unicode hex="00B0"/>
  <outline>
    <contour>
      <point x="128" y="1151" type="qcurve" smooth="yes"/>
      <point x="128" y="1300"/>
      <point x="385" y="1477"/>
      <point x="555" y="1477" type="qcurve" smooth="yes"/>
      <point x="720" y="1477"/>
      <point x="972" y="1300"/>
      <point x="972" y="1151" type="qcurve" smooth="yes"/>
      <point x="972" y="1005"/>
      <point x="720" y="829"/>
      <point x="555" y="829" type="qcurve" smooth="yes"/>
      <point x="385" y="829"/>
      <point x="128" y="1005"/>
    </contour>
    <contour>
      <point x="257" y="1152" type="qcurve" smooth="yes"/>
      <point x="257" y="1089"/>
      <point x="413" y="984"/>
      <point x="553" y="984" type="qcurve" smooth="yes"/>
      <point x="690" y="984"/>
      <point x="844" y="1089"/>
      <point x="844" y="1152" type="qcurve" smooth="yes"/>
      <point x="844" y="1215"/>
      <point x="690" y="1322"/>
      <point x="553" y="1322" type="qcurve" smooth="yes"/>
      <point x="413" y="1322"/>
      <point x="257" y="1215"/>
    </contour>
  </outline>
</glyph>
<glyph name="mu.math" format="1">
  <advance width="1460"/>
  <unicode hex="00B5"/>
  <outline>
    <contour>
      <point x="711" y="-21" type="qcurve" smooth="yes"/>
      <point x="635" y="-21"/>
      <point x="460" y="14"/>
      <point x="319" y="100" type="qcurve"/>
      <point x="319" y="-416" type="line"/>
      <point x="148" y="-416" type="line"/>
      <point x="148" y="1052" type="line"/>
      <point x="328" y="1052" type="line"/>
      <point x="328" y="460" type="line"/>
      <point x="328" y="264"/>
      <point x="533" y="131"/>
      <point x="700" y="131" type="qcurve" smooth="yes"/>
      <point x="890" y="131"/>
      <point x="1081" y="217"/>
      <point x="1130" y="298" type="qcurve"/>
      <point x="1130" y="1052" type="line"/>
      <point x="1312" y="1052" type="line"/>
      <point x="1312" y="0" type="line"/>
      <point x="1155" y="0" type="line"/>
      <point x="1136" y="186" type="line"/>
      <point x="999" y="49"/>
      <point x="812" y="-21"/>
    </contour>
  </outline>
</glyph>
<glyph name="periodcentered" format="1">
  <advance width="611"/>
  <unicode hex="00B7"/>
  <outline>
    <contour>
      <point x="161" y="729" type="qcurve" smooth="yes"/>
      <point x="161" y="791"/>
      <point x="245" y="853"/>
      <point x="306" y="853" type="qcurve" smooth="yes"/>
      <point x="366" y="853"/>
      <point x="450" y="791"/>
      <point x="450" y="729" type="qcurve" smooth="yes"/>
      <point x="450" y="668"/>
      <point x="366" y="606"/>
      <point x="306" y="606" type="qcurve" smooth="yes"/>
      <point x="245" y="606"/>
      <point x="161" y="668"/>
    </contour>
  </outline>
</glyph>
<glyph name="germandbls" format="1">
  <advance width="1597"/>
  <unicode hex="00DF"/>
  <outline>
    <contour>
      <point x="320" y="1112" type="qcurve" smooth="yes"/>
      <point x="320" y="0" type="line"/>
      <point x="140" y="0" type="line"/>
      <point x="140" y="1112" type="line" smooth="yes"/>
      <point x="140" y="1339"/>
      <point x="448" y="1554"/>
      <point x="674" y="1554" type="qcurve" smooth="yes"/>
      <point x="911" y="1554"/>
      <point x="1183" y="1375"/>
      <point x="1183" y="1217" type="qcurve" smooth="yes"/>
      <point x="1183" y="1116"/>
      <point x="1119" y="1011"/>
      <point x="1082" y="969" type="qcurve" smooth="yes"/>
      <point x="1049" y="932"/>
      <point x="994" y="854"/>
      <point x="994" y="820" type="qcurve" smooth="yes"/>
      <point x="994" y="778"/>
      <point x="1105" y="698"/>
      <point x="1173" y="659" type="qcurve" smooth="yes"/>
      <point x="1286" y="595"/>
      <point x="1509" y="447"/>
      <point x="1509" y="317" type="qcurve" smooth="yes"/>
      <point x="1509" y="140"/>
      <point x="1202" y="-20"/>
      <point x="987" y="-20" type="qcurve" smooth="yes"/>
      <point x="897" y="-20"/>
      <point x="634" y="24"/>
      <point x="584" y="49" type="qcurve"/>
      <point x="637" y="181" type="line"/>
      <point x="626" y="186"/>
      <point x="827" y="131"/>
      <point x="959" y="131" type="qcurve" smooth="yes"/>
      <point x="1162" y="131"/>
      <point x="1327" y="244"/>
      <point x="1327" y="308" type="qcurve" smooth="yes"/>
      <point x="1327" y="377"/>
      <point x="1130" y="492"/>
      <point x="1004" y="564" type="qcurve" smooth="yes"/>
      <point x="942" y="600"/>
      <point x="813" y="719"/>
      <point x="813" y="822" type="qcurve" smooth="yes"/>
      <point x="813" y="900"/>
      <point x="882" y="991"/>
      <point x="922" y="1035" type="qcurve" smooth="yes"/>
      <point x="959" y="1074"/>
      <point x="1016" y="1163"/>
      <point x="1016" y="1201" type="qcurve" smooth="yes"/>
      <point x="1016" y="1272"/>
      <point x="872" y="1403"/>
      <point x="689" y="1403" type="qcurve" smooth="yes"/>
      <point x="504" y="1403"/>
      <point x="320" y="1251"/>
    </contour>
  </outline>
</glyph>
<glyph name="oslash" format="1">
  <advance width="1542"/>
  <unicode hex="00F8"/>
  <outline>
    <contour>
      <point x="85" y="509" type="qcurve" smooth="yes"/>
      <point x="85" y="542" type="line" smooth="yes"/>
      <point x="85" y="789"/>
      <point x="470" y="1082"/>
      <point x="770" y="1082" type="qcurve" smooth="yes"/>
      <point x="1082" y="1082"/>
      <point x="1457" y="796"/>
      <point x="1457" y="542" type="qcurve" smooth="yes"/>
      <point x="1457" y="509" type="line" smooth="yes"/>
      <point x="1457" y="262"/>
      <point x="1073" y="-30"/>
      <point x="772" y="-30" type="qcurve" smooth="yes"/>
      <point x="470" y="-30"/>
      <point x="85" y="262"/>
    </contour>
    <contour>
      <point x="274" y="542" type="qcurve" smooth="yes"/>
      <point x="274" y="509" type="line" smooth="yes"/>
      <point x="274" y="356"/>
      <point x="511" y="122"/>
      <point x="772" y="122" type="qcurve" smooth="yes"/>
      <point x="1029" y="122"/>
      <point x="1268" y="356"/>
      <point x="1268" y="509" type="qcurve" smooth="yes"/>
      <point x="1268" y="542" type="line" smooth="yes"/>
      <point x="1268" y="693"/>
      <point x="1029" y="930"/>
      <point x="770" y="930" type="qcurve" smooth="yes"/>
      <point x="511" y="930"/>
      <point x="274" y="693"/>
    </contour>
    <contour>
      <point x="818" y="514" type="line"/>
      <point x="481" y="87" type="line"/>
      <point x="479" y="65" type="line"/>
      <point x="336" y="-124" type="line"/>
      <point x="167" y="-124" type="line"/>
      <point x="361" y="130" type="line"/>
      <point x="392" y="153" type="line"/>
      <point x="699" y="554" type="line"/>
    </contour>
    <contour>
      <point x="1353" y="1201" type="line"/>
      <point x="1141" y="922" type="line"/>
      <point x="1110" y="900" type="line"/>
      <point x="830" y="530" type="line"/>
      <point x="711" y="570" type="line"/>
      <point x="1028" y="976" type="line"/>
      <point x="1028" y="996" type="line"/>
      <point x="1184" y="1201" type="line"/>
    </contour>
  </outline>
</glyph>
<glyph name="tilde" format="1">
  <advance width="1269"/>
  <unicode hex="02DC"/>
  <outline>
    <contour>
      <point x="1018" y="1413" type="qcurve"/>
      <point x="1111" y="1407" type="line"/>
      <point x="1111" y="1287"/>
      <point x="938" y="1163"/>
      <point x="838" y="1163" type="qcurve" smooth="yes"/>
      <point x="722" y="1163"/>
      <point x="598" y="1258"/>
      <point x="442" y="1258" type="qcurve" smooth="yes"/>
      <point x="348" y="1258"/>
      <point x="251" y="1184"/>
      <point x="251" y="1149" type="qcurve"/>
      <point x="158" y="1152" type="line"/>
      <point x="158" y="1272"/>
      <point x="329" y="1400"/>
      <point x="429" y="1400" type="qcurve" smooth="yes"/>
      <point x="523" y="1400"/>
      <point x="676" y="1305"/>
      <point x="824" y="1305" type="qcurve" smooth="yes"/>
      <point x="919" y="1305"/>
      <point x="1018" y="1380"/>
    </contour>
    <contour>
      <point x="634" y="1052" type="move" name="_top"/>
    </contour>
  </outline>
</glyph>
<glyph name="quotedblright" format="1">
  <advance width="1077"/>
  <unicode hex="201D"/>
  <outline>
    <contour>
      <point x="95" y="1045" type="line"/>
      <point x="171" y="1119"/>
      <point x="266" y="1265"/>
      <point x="266" y="1332" type="qcurve" smooth="yes"/>
      <point x="266" y="1456" type="line"/>
      <point x="443" y="1456" type="line"/>
      <point x="443" y="1335" type="line" smooth="yes"/>
      <point x="443" y="1231"/>
      <point x="315" y="1036"/>
      <point x="227" y="988" type="qcurve"/>
    </contour>
    <contour>
      <point x="685" y="1045" type="line"/>
      <point x="761" y="1119"/>
      <point x="856" y="1265"/>
      <point x="856" y="1332" type="qcurve" smooth="yes"/>
      <point x="856" y="1456" type="line"/>
      <point x="1033" y="1456" type="line"/>
      <point x="1033" y="1335" type="line" smooth="yes"/>
      <point x="1033" y="1231"/>
      <point x="905" y="1036"/>
      <point x="817" y="988" type="qcurve"/>
    </contour>
  </outline>
</glyph>
<glyph name="bullet" format="1">
  <advance width="868"/>
  <unicode hex="2022"/>
  <outline>
    <contour>
      <point x="164" y="732" type="qcurve" smooth="yes"/>
      <point x="164" y="773" type="line" smooth="yes"/>
      <point x="164" y="868"/>
      <point x="327" y="971"/>
      <point x="432" y="971" type="qcurve" smooth="yes"/>
      <point x="540" y="971"/>
      <point x="704" y="867"/>
      <point x="704" y="773" type="qcurve" smooth="yes"/>
      <point x="704" y="732" type="line" smooth="yes"/>
      <point x="704" y="638"/>
      <point x="540" y="536"/>
      <point x="434" y="536" type="qcurve" smooth="yes"/>
      <point x="327" y="536"/>
      <point x="164" y="638"/>
    </contour>
  </outline>
</glyph>
<glyph name="perthousand" format="1">
  <advance width="3068"/>
  <unicode hex="2030"/>
  <outline>
    <contour>
      <point x="72" y="982" type="qcurve" smooth="yes"/>
      <point x="72" y="1169" type="line" smooth="yes"/>
      <point x="72" y="1305"/>
      <point x="304" y="1485"/>
      <point x="460" y="1485" type="qcurve" smooth="yes"/>
      <point x="621" y="1485"/>
      <point x="850" y="1305"/>
      <point x="850" y="1169" type="qcurve" smooth="yes"/>
      <point x="850" y="982" type="line" smooth="yes"/>
      <point x="850" y="847"/>
      <point x="621" y="668"/>
      <point x="463" y="668" type="qcurve" smooth="yes"/>
      <point x="305" y="668"/>
      <point x="72" y="847"/>
    </contour>
    <contour>
      <point x="232" y="980" type="line" smooth="yes"/>
      <point x="232" y="935"/>
      <point x="344" y="821"/>
      <point x="463" y="821" type="qcurve" smooth="yes"/>
      <point x="582" y="821"/>
      <point x="690" y="935"/>
      <point x="690" y="980" type="qcurve" smooth="yes"/>
      <point x="690" y="1171" type="line" smooth="yes"/>
      <point x="690" y="1217"/>
      <point x="578" y="1332"/>
      <point x="460" y="1332" type="qcurve" smooth="yes"/>
      <point x="342" y="1332"/>
      <point x="232" y="1217"/>
      <point x="232" y="1171" type="qcurve" smooth="yes"/>
    </contour>
    <contour>
      <point x="1672" y="1414" type="line"/>
      <point x="466" y="-33" type="line"/>
      <point x="350" y="24" type="line"/>
      <point x="1556" y="1471" type="line"/>
    </contour>
    <contour>
      <point x="1223" y="291" type="qcurve" smooth="yes"/>
      <point x="1223" y="478" type="line" smooth="yes"/>
      <point x="1223" y="615"/>
      <point x="1442" y="794"/>
      <point x="1611" y="794" type="qcurve" smooth="yes"/>
      <point x="1785" y="794"/>
      <point x="2001" y="615"/>
      <point x="2001" y="478" type="qcurve" smooth="yes"/>
      <point x="2001" y="291" type="line" smooth="yes"/>
      <point x="2001" y="155"/>
      <point x="1785" y="-23"/>
      <point x="1614" y="-23" type="qcurve" smooth="yes"/>
      <point x="1443" y="-23"/>
      <point x="1223" y="155"/>
    </contour>
    <contour>
      <point x="1382" y="289" type="line" smooth="yes"/>
      <point x="1382" y="244"/>
      <point x="1481" y="130"/>
      <point x="1614" y="130" type="qcurve" smooth="yes"/>
      <point x="1747" y="130"/>
      <point x="1841" y="244"/>
      <point x="1841" y="289" type="qcurve" smooth="yes"/>
      <point x="1841" y="480" type="line" smooth="yes"/>
      <point x="1841" y="526"/>
      <point x="1743" y="641"/>
      <point x="1611" y="641" type="qcurve" smooth="yes"/>
      <point x="1479" y="641"/>
      <point x="1382" y="526"/>
      <point x="1382" y="480" type="qcurve" smooth="yes"/>
    </contour>
    <contour>
      <point x="2219" y="291" type="qcurve" smooth="yes"/>
      <point x="2219" y="478" type="line" smooth="yes"/>
      <point x="2219" y="615"/>
      <point x="2437" y="794"/>
      <point x="2607" y="794" type="qcurve" smooth="yes"/>
      <point x="2780" y="794"/>
      <point x="2996" y="615"/>
      <point x="2996" y="478" type="qcurve" smooth="yes"/>
      <point x="2996" y="291" type="line" smooth="yes"/>
      <point x="2996" y="155"/>
      <point x="2780" y="-23"/>
      <point x="2610" y="-23" type="qcurve" smooth="yes"/>
      <point x="2439" y="-23"/>
      <point x="2219" y="155"/>
    </contour>
    <contour>
      <point x="2377" y="289" type="line" smooth="yes"/>
      <point x="2377" y="244"/>
      <point x="2476" y="130"/>
      <point x="2610" y="130" type="qcurve" smooth="yes"/>
      <point x="2743" y="130"/>
      <point x="2837" y="244"/>
      <point x="2837" y="289" type="qcurve" smooth="yes"/>
      <point x="2837" y="480" type="line" smooth="yes"/>
      <point x="2837" y="526"/>
      <point x="2739" y="641"/>
      <point x="2607" y="641" type="qcurve" smooth="yes"/>
      <point x="2475" y="641"/>
      <point x="2377" y="526"/>
      <point x="2377" y="480" type="qcurve" smooth="yes"/>
    </contour>
  </outline>
</glyph>
<glyph name="numero" format="1">
  <advance width="3162"/>
  <unicode hex="2116"/>
  <outline>
    <contour>
      <point x="170" y="0" type="line"/>
      <point x="170" y="1456" type="line"/>
      <point x="372" y="1456" type="line"/>
      <point x="1214" y="433" type="line" smooth="yes"/>
      <point x="1226" y="419"/>
      <point x="1279" y="352"/>
      <point x="1295" y="326" type="qcurve"/>
      <point x="1373" y="326" type="line"/>
      <point x="1372" y="332"/>
      <point x="1368" y="405"/>
      <point x="1368" y="441" type="qcurve" smooth="yes"/>
      <point x="1368" y="1456" type="line"/>
      <point x="1552" y="1456" type="line"/>
      <point x="1552" y="0" type="line"/>
      <point x="1350" y="0" type="line"/>
      <point x="511" y="1020" type="line" smooth="yes"/>
      <point x="499" y="1035"/>
      <point x="437" y="1102"/>
      <point x="421" y="1127" type="qcurve"/>
      <point x="359" y="1127" type="line"/>
      <point x="361" y="1106"/>
      <point x="354" y="1018"/>
      <point x="354" y="1012" type="qcurve" smooth="yes"/>
      <point x="354" y="0" type="line"/>
    </contour>
    <contour>
      <point x="1813" y="962" type="qcurve" smooth="yes"/>
      <point x="1813" y="981" type="line" smooth="yes"/>
      <point x="1813" y="1205"/>
      <point x="2148" y="1475"/>
      <point x="2427" y="1475" type="qcurve" smooth="yes"/>
      <point x="2717" y="1475"/>
      <point x="3046" y="1211"/>
      <point x="3046" y="981" type="qcurve" smooth="yes"/>
      <point x="3046" y="962" type="line" smooth="yes"/>
      <point x="3046" y="738"/>
      <point x="2709" y="471"/>
      <point x="2429" y="471" type="qcurve" smooth="yes"/>
      <point x="2148" y="471"/>
      <point x="1813" y="738"/>
    </contour>
    <contour>
      <point x="1995" y="983" type="qcurve" smooth="yes"/>
      <point x="1995" y="964" type="line" smooth="yes"/>
      <point x="1995" y="829"/>
      <point x="2199" y="622"/>
      <point x="2429" y="622" type="qcurve" smooth="yes"/>
      <point x="2656" y="622"/>
      <point x="2857" y="829"/>
      <point x="2857" y="964" type="qcurve" smooth="yes"/>
      <point x="2857" y="983" type="line" smooth="yes"/>
      <point x="2857" y="1116"/>
      <point x="2656" y="1323"/>
      <point x="2427" y="1323" type="qcurve" smooth="yes"/>
      <point x="2199" y="1323"/>
      <point x="1995" y="1116"/>
    </contour>
    <contour>
      <point x="1866" y="129" type="line"/>
      <point x="1866" y="295" type="line"/>
      <point x="3002" y="295" type="line"/>
      <point x="3002" y="129" type="line"/>
    </contour>
  </outline>
</glyph>
<glyph name="trademark" format="1">
  <advance width="2175"/>
  <unicode hex="2122"/>
  <outline>
    <contour>
      <point x="1953" y="822" type="line"/>
      <point x="1953" y="1434" type="line"/>
      <point x="1602" y="821" type="line"/>
      <point x="1467" y="821" type="line"/>
      <point x="1117" y="1432" type="line"/>
      <point x="1117" y="821" type="line"/>
      <point x="1019" y="821" type="line"/>
      <point x="1019" y="1456" type="line"/>
      <point x="1233" y="1456" type="line"/>
      <point x="1544" y="922" type="line"/>
      <point x="1862" y="1456" type="line"/>
      <point x="2065" y="1456" type="line"/>
      <point x="2065" y="822" type="line"/>
    </contour>
    <contour>
      <point x="819" y="1456" type="line"/>
      <point x="819" y="1310" type="line"/>
      <point x="521" y="1310" type="line"/>
      <point x="521" y="821" type="line"/>
      <point x="379" y="821" type="line"/>
      <point x="379" y="1310" type="line"/>
      <point x="68" y="1310" type="line"/>
      <point x="68" y="1456" type="line"/>
    </contour>
  </outline>
</glyph>
<glyph name="six.pnum" format="1">
  <advance width="1346"/>
  <outline>
    <contour>
      <point x="66" y="627" type="qcurve" smooth="yes"/>
      <point x="66" y="656" type="line" smooth="yes"/>
      <point x="66" y="1008"/>
      <point x="654" y="1478"/>
      <point x="1089" y="1478" type="qcurve" smooth="yes"/>
      <point x="1105" y="1478" type="line"/>
      <point x="1105" y="1309" type="line"/>
      <point x="1084" y="1309" type="line" smooth="yes"/>
      <point x="760" y="1309"/>
      <point x="253" y="1010"/>
      <point x="253" y="652" type="qcurve" smooth="yes"/>
      <point x="253" y="553" type="line" smooth="yes"/>
      <point x="253" y="341"/>
      <point x="496" y="122"/>
      <point x="716" y="122" type="qcurve" smooth="yes"/>
      <point x="929" y="122"/>
      <point x="1139" y="302"/>
      <point x="1139" y="434" type="qcurve" smooth="yes"/>
      <point x="1139" y="571"/>
      <point x="920" y="739"/>
      <point x="721" y="739" type="qcurve" smooth="yes"/>
      <point x="526" y="739"/>
      <point x="253" y="574"/>
      <point x="216" y="380" type="qcurve"/>
      <point x="259" y="384" type="line"/>
      <point x="259" y="653" type="line"/>
      <point x="318" y="762"/>
      <point x="586" y="895"/>
      <point x="761" y="895" type="qcurve" smooth="yes"/>
      <point x="1028" y="895"/>
      <point x="1323" y="636"/>
      <point x="1323" y="444" type="qcurve" smooth="yes"/>
      <point x="1323" y="243"/>
      <point x="988" y="-30"/>
      <point x="721" y="-30" type="qcurve" smooth="yes"/>
      <point x="456" y="-30"/>
      <point x="66" y="261"/>
    </contour>
  </outline>
</glyph>
